 <svg version="1.0" xmlns="http://www.w3.org/2000/svg" width="700.000000pt" height="320.000000pt" viewBox="0 0 700.000000 320.000000" preserveAspectRatio="xMidYMid meet">
<metadata>
Created by potrace 1.12, written by Peter Selinger 2001-2015
</metadata>
<g transform="translate(0.000000,320.000000) scale(0.100000,-0.100000)" fill="#000000" stroke="none">
<path d="M5970 3154 c-116 -99 -156 -162 -226 -358 -21 -60 -44 -111 -51 -113
-7 -3 -182 38 -390 91 -339 85 -442 110 -743 177 -134 30 -501 87 -670 103
-85 8 -261 20 -390 26 -286 14 -1315 10 -1315 -5 0 -6 70 -13 175 -17 427 -17
1074 -60 1265 -83 178 -22 585 -81 695 -101 526 -97 1038 -253 1532 -468 27
-11 39 -13 44 -5 4 7 10 86 15 178 4 91 15 202 24 246 16 76 59 175 76 175 5
0 11 -17 14 -37 33 -193 87 -362 149 -463 27 -46 44 -60 150 -120 99 -56 123
-75 137 -105 27 -56 63 -99 176 -216 l104 -106 -81 -171 c-44 -93 -80 -173
-80 -176 0 -35 97 89 274 349 8 10 -10 33 -70 92 -94 91 -131 142 -199 277
l-50 99 -93 32 c-107 37 -145 67 -191 155 -47 87 -97 250 -126 405 -14 77 -28
150 -30 163 -4 17 -12 22 -38 22 -25 0 -47 -12 -87 -46z"></path>
<path d="M4411 2109 c-363 -32 -754 -170 -1131 -397 -238 -144 -583 -398 -910
-671 -96 -81 -85 -77 -126 -45 -20 16 -62 49 -94 74 -32 25 -105 82 -163 127
l-105 83 -141 0 c-110 0 -141 -3 -141 -13 0 -7 112 -107 250 -223 137 -115
248 -214 247 -220 -2 -11 -182 -164 -263 -224 -18 -14 -34 -28 -34 -32 0 -5
84 -8 188 -8 l187 0 241 183 c132 100 276 210 320 244 493 388 761 573 1033
710 224 113 416 179 641 219 148 27 593 27 755 1 311 -51 681 -159 1039 -306
82 -34 150 -61 152 -61 2 0 4 6 4 13 0 14 -40 36 -263 148 -622 312 -1176 443
-1686 398z"></path>
<path d="M3805 1277 c-3 -6 -4 -167 -3 -357 l3 -345 123 -3 122 -3 0 246 c0
147 4 245 9 245 6 0 114 -110 242 -245 l232 -245 174 0 173 0 0 360 0 360
-114 0 c-95 0 -115 -3 -120 -16 -3 -9 -6 -128 -6 -266 0 -137 -4 -248 -8 -246
-5 2 -106 116 -226 253 -120 138 -225 256 -234 263 -23 17 -361 17 -367 -1z"></path>
<path d="M5857 1283 c-4 -3 -7 -10 -7 -14 0 -4 84 -81 188 -170 103 -89 188
-165 190 -168 1 -4 -83 -83 -188 -176 -104 -93 -190 -174 -190 -181 0 -10 38
-14 160 -16 l159 -3 123 112 c68 62 128 112 133 113 6 0 67 -50 137 -110 l127
-110 156 0 c126 0 155 3 155 14 0 8 -82 87 -182 176 -101 89 -184 165 -186
170 -2 4 79 81 180 171 101 90 184 171 186 181 3 17 -8 18 -151 18 l-155 0
-132 -110 c-132 -110 -133 -111 -154 -92 -12 10 -69 60 -127 110 l-106 92
-155 0 c-85 0 -158 -3 -161 -7z"></path>
<path d="M0 930 l0 -350 513 2 512 3 0 55 0 55 -400 5 -400 5 -5 285 -5 285
-107 3 -108 3 0 -351z"></path>
<path d="M125 398 c-40 -14 -94 -65 -111 -105 -8 -18 -14 -56 -14 -84 0 -63
27 -115 77 -149 31 -21 48 -25 108 -25 85 0 108 13 103 59 -2 22 -7 30 -18 27
-8 -3 -39 -7 -67 -9 -48 -3 -56 -1 -83 26 -26 26 -30 38 -30 82 0 44 4 56 29
81 25 25 37 29 85 29 30 0 58 -5 61 -10 12 -19 25 1 25 36 0 28 -5 36 -26 44
-32 13 -100 12 -139 -2z"></path>
<path d="M595 398 c-71 -25 -115 -93 -115 -177 0 -63 13 -98 53 -139 109 -113
306 -26 307 136 0 136 -119 224 -245 180z m110 -74 c58 -23 58 -185 0 -208
-29 -11 -80 -6 -102 9 -47 33 -53 126 -12 179 16 20 29 26 59 26 21 0 46 -3
55 -6z"></path>
<path d="M1050 219 l0 -190 33 3 32 3 5 135 c4 95 8 128 14 110 93 -265 86
-250 117 -250 34 0 45 20 95 173 15 48 32 87 36 87 4 0 8 -59 8 -131 l0 -130
38 3 37 3 3 188 2 187 -59 0 -59 0 -30 -82 c-16 -46 -35 -101 -42 -123 -7 -22
-15 -43 -19 -47 -3 -4 -26 51 -50 122 l-44 130 -58 0 -59 0 0 -191z"></path>
<path d="M1700 220 l0 -190 35 0 35 0 1 143 c1 159 -4 161 64 -27 l40 -111 34
0 34 0 48 140 47 140 1 -142 1 -143 40 0 40 0 0 190 0 190 -59 0 -58 0 -44
-130 c-24 -71 -47 -126 -50 -122 -4 4 -17 39 -29 77 -13 39 -31 94 -42 123
l-19 52 -60 0 -59 0 0 -190z"></path>
<path d="M2350 278 c0 -107 3 -140 18 -167 37 -74 122 -100 205 -63 70 31 80
59 81 222 l1 135 -40 0 -40 0 -3 -130 c-3 -148 -10 -165 -72 -165 -58 0 -65
15 -68 167 l-4 133 -39 0 -39 0 0 -132z"></path>
<path d="M2884 397 c-2 -7 -3 -91 -2 -187 l3 -175 38 -3 37 -3 0 125 c0 69 3
126 8 126 4 0 43 -55 87 -123 l80 -122 40 0 40 0 0 185 0 185 -37 3 -38 3 0
-120 c0 -67 -3 -121 -7 -121 -5 0 -37 46 -72 103 -35 56 -71 110 -79 120 -18
20 -90 24 -98 4z"></path>
<path d="M3450 220 l0 -190 40 0 40 0 0 190 0 190 -40 0 -40 0 0 -190z"></path>
<path d="M3855 391 c-76 -35 -115 -95 -115 -177 0 -117 92 -195 212 -181 60 8
78 20 78 58 l0 28 -69 -6 c-68 -6 -71 -5 -100 25 -27 26 -31 38 -31 82 0 44 4
56 29 81 25 25 43 31 91 31 3 0 22 -3 43 -6 l37 -7 0 36 c0 29 -5 37 -26 45
-40 15 -105 11 -149 -9z"></path>
<path d="M4321 368 c-20 -48 -108 -295 -113 -318 -2 -11 7 -15 36 -15 25 0 41
5 46 15 26 55 25 55 92 58 l65 3 16 -41 c14 -38 18 -40 56 -40 23 0 41 4 41 8
0 5 -29 89 -64 188 l-63 179 -47 3 c-46 3 -46 3 -65 -40z m86 -118 l21 -70
-44 0 c-24 0 -44 5 -44 10 0 21 34 130 40 130 4 0 16 -31 27 -70z"></path>
<path d="M4724 396 c-14 -36 0 -51 51 -56 l50 -5 3 -153 3 -152 39 0 39 0 3
153 3 152 50 5 c48 5 50 6 50 35 l0 30 -143 3 c-118 2 -143 0 -148 -12z"></path>
<path d="M5215 398 c-3 -8 -4 -92 -3 -188 l3 -175 40 0 40 0 0 185 0 185 -38
3 c-24 2 -39 -1 -42 -10z"></path>
<path d="M5626 400 c-37 -12 -85 -56 -102 -97 -18 -42 -18 -137 0 -172 25 -47
81 -89 129 -96 178 -27 287 182 166 320 -44 49 -119 67 -193 45z m109 -76 c39
-15 59 -118 33 -167 -18 -34 -40 -46 -85 -47 -33 0 -46 5 -62 25 -24 32 -35
76 -26 115 11 51 42 80 85 80 21 0 46 -3 55 -6z"></path>
<path d="M6080 219 l0 -190 36 3 37 3 -2 117 c-1 64 2 119 7 122 6 3 46 -51
91 -120 l81 -125 38 3 37 3 3 188 2 187 -39 0 -40 0 -3 -122 -3 -123 -80 122
-80 123 -42 0 -43 0 0 -191z"></path>
<path d="M6694 396 c-40 -18 -74 -62 -74 -96 0 -40 34 -77 101 -111 33 -16 63
-37 66 -46 15 -38 -74 -58 -129 -29 -31 17 -38 12 -38 -24 0 -36 18 -50 76
-56 102 -12 176 31 178 105 1 49 -20 73 -97 112 -63 32 -77 50 -56 75 11 13
26 15 76 11 l63 -6 0 30 c0 22 -6 32 -26 39 -36 14 -103 12 -140 -4z"></path>
</g>
</svg>